<mxfile host="app.diagrams.net" modified="2025-01-27T00:00:00.000Z" agent="5.0" etag="drawio" version="22.1.16" type="device">
  <diagram name="Security Layers" id="security-layers">
    <mxGraphModel dx="1422" dy="794" grid="1" gridSize="10" guides="1" tooltips="1" connect="1" arrows="1" fold="1" page="1" pageScale="1" pageWidth="1169" pageHeight="827" math="0" shadow="0">
      <root>
        <mxCell id="0" />
        <mxCell id="1" parent="0" />
        
        <!-- Security Layers Title -->
        <mxCell id="security-title" value="Multi-Layer Security Architecture" style="text;html=1;strokeColor=none;fillColor=none;align=center;verticalAlign=middle;whiteSpace=wrap;rounded=0;fontSize=16;fontStyle=1;" vertex="1" parent="1">
          <mxGeometry x="50" y="20" width="300" height="30" as="geometry" />
        </mxCell>
        
        <!-- Network Security Layer -->
        <mxCell id="network-security" value="Network Security" style="swimlane;whiteSpace=wrap;html=1;fillColor=#e3f2fd;strokeColor=#1976d2;" vertex="1" parent="1">
          <mxGeometry x="50" y="70" width="300" height="120" as="geometry" />
        </mxCell>
        <mxCell id="firewall" value="Docker Network Isolation" style="rounded=1;whiteSpace=wrap;html=1;fillColor=#bbdefb;" vertex="1" parent="network-security">
          <mxGeometry x="20" y="30" width="80" height="30" as="geometry" />
        </mxCell>
        <mxCell id="ssl" value="SSL/TLS Termination" style="rounded=1;whiteSpace=wrap;html=1;fillColor=#bbdefb;" vertex="1" parent="network-security">
          <mxGeometry x="110" y="30" width="80" height="30" as="geometry" />
        </mxCell>
        <mxCell id="cors" value="CORS Policy" style="rounded=1;whiteSpace=wrap;html=1;fillColor=#bbdefb;" vertex="1" parent="network-security">
          <mxGeometry x="200" y="30" width="80" height="30" as="geometry" />
        </mxCell>
        
        <!-- Application Security Layer -->
        <mxCell id="app-security" value="Application Security" style="swimlane;whiteSpace=wrap;html=1;fillColor=#f3e5f5;strokeColor=#7b1fa2;" vertex="1" parent="1">
          <mxGeometry x="400" y="70" width="320" height="120" as="geometry" />
        </mxCell>
        <mxCell id="auth" value="Authentication" style="rounded=1;whiteSpace=wrap;html=1;fillColor=#ce93d8;" vertex="1" parent="app-security">
          <mxGeometry x="20" y="30" width="70" height="30" as="geometry" />
        </mxCell>
        <mxCell id="csrf" value="CSRF Protection" style="rounded=1;whiteSpace=wrap;html=1;fillColor=#ce93d8;" vertex="1" parent="app-security">
          <mxGeometry x="100" y="30" width="70" height="30" as="geometry" />
        </mxCell>
        <mxCell id="xss" value="XSS Prevention" style="rounded=1;whiteSpace=wrap;html=1;fillColor=#ce93d8;" vertex="1" parent="app-security">
          <mxGeometry x="180" y="30" width="70" height="30" as="geometry" />
        </mxCell>
        <mxCell id="validation" value="Input Validation" style="rounded=1;whiteSpace=wrap;html=1;fillColor=#ce93d8;" vertex="1" parent="app-security">
          <mxGeometry x="260" y="30" width="70" height="30" as="geometry" />
        </mxCell>
        
        <!-- Data Security Layer -->
        <mxCell id="data-security" value="Data Security" style="swimlane;whiteSpace=wrap;html=1;fillColor=#e8f5e8;strokeColor=#2e7d32;" vertex="1" parent="1">
          <mxGeometry x="50" y="240" width="300" height="120" as="geometry" />
        </mxCell>
        <mxCell id="encryption" value="Database Encryption" style="rounded=1;whiteSpace=wrap;html=1;fillColor=#a5d6a7;" vertex="1" parent="data-security">
          <mxGeometry x="20" y="30" width="80" height="30" as="geometry" />
        </mxCell>
        <mxCell id="sanitization" value="Log Sanitization" style="rounded=1;whiteSpace=wrap;html=1;fillColor=#a5d6a7;" vertex="1" parent="data-security">
          <mxGeometry x="110" y="30" width="80" height="30" as="geometry" />
        </mxCell>
        <mxCell id="secrets" value="Secret Management" style="rounded=1;whiteSpace=wrap;html=1;fillColor=#a5d6a7;" vertex="1" parent="data-security">
          <mxGeometry x="200" y="30" width="80" height="30" as="geometry" />
        </mxCell>
        
        <!-- Security Flow -->
        <mxCell id="internet-user" value="Internet User" style="shape=umlActor;verticalLabelPosition=bottom;verticalAlign=top;html=1;outlineConnect=0;fillColor=#ffebee;" vertex="1" parent="1">
          <mxGeometry x="400" y="240" width="30" height="60" as="geometry" />
        </mxCell>
        
        <!-- Security Flow Arrows -->
        <mxCell id="flow1" value="1. Network Layer" style="edgeStyle=orthogonalEdgeStyle;rounded=0;orthogonalLoop=1;jettySize=auto;html=1;" edge="1" parent="1" source="internet-user" target="firewall">
          <mxGeometry relative="1" as="geometry" />
        </mxCell>
        <mxCell id="flow2" value="2. SSL/TLS" style="edgeStyle=orthogonalEdgeStyle;rounded=0;orthogonalLoop=1;jettySize=auto;html=1;" edge="1" parent="1" source="firewall" target="ssl">
          <mxGeometry relative="1" as="geometry" />
        </mxCell>
        <mxCell id="flow3" value="3. CORS Check" style="edgeStyle=orthogonalEdgeStyle;rounded=0;orthogonalLoop=1;jettySize=auto;html=1;" edge="1" parent="1" source="ssl" target="cors">
          <mxGeometry relative="1" as="geometry" />
        </mxCell>
        <mxCell id="flow4" value="4. Authentication" style="edgeStyle=orthogonalEdgeStyle;rounded=0;orthogonalLoop=1;jettySize=auto;html=1;" edge="1" parent="1" source="cors" target="auth">
          <mxGeometry relative="1" as="geometry" />
        </mxCell>
        <mxCell id="flow5" value="5. CSRF Validation" style="edgeStyle=orthogonalEdgeStyle;rounded=0;orthogonalLoop=1;jettySize=auto;html=1;" edge="1" parent="1" source="auth" target="csrf">
          <mxGeometry relative="1" as="geometry" />
        </mxCell>
        <mxCell id="flow6" value="6. XSS Prevention" style="edgeStyle=orthogonalEdgeStyle;rounded=0;orthogonalLoop=1;jettySize=auto;html=1;" edge="1" parent="1" source="csrf" target="xss">
          <mxGeometry relative="1" as="geometry" />
        </mxCell>
        <mxCell id="flow7" value="7. Input Validation" style="edgeStyle=orthogonalEdgeStyle;rounded=0;orthogonalLoop=1;jettySize=auto;html=1;" edge="1" parent="1" source="xss" target="validation">
          <mxGeometry relative="1" as="geometry" />
        </mxCell>
        <mxCell id="flow8" value="8. Data Encryption" style="edgeStyle=orthogonalEdgeStyle;rounded=0;orthogonalLoop=1;jettySize=auto;html=1;" edge="1" parent="1" source="validation" target="encryption">
          <mxGeometry relative="1" as="geometry" />
        </mxCell>
        <mxCell id="flow9" value="9. Log Sanitization" style="edgeStyle=orthogonalEdgeStyle;rounded=0;orthogonalLoop=1;jettySize=auto;html=1;" edge="1" parent="1" source="encryption" target="sanitization">
          <mxGeometry relative="1" as="geometry" />
        </mxCell>
        <mxCell id="flow10" value="10. Secret Management" style="edgeStyle=orthogonalEdgeStyle;rounded=0;orthogonalLoop=1;jettySize=auto;html=1;" edge="1" parent="1" source="sanitization" target="secrets">
          <mxGeometry relative="1" as="geometry" />
        </mxCell>
        
      </root>
    </mxGraphModel>
  </diagram>
  
  <diagram name="Security Data Flow" id="security-data-flow">
    <mxGraphModel dx="1422" dy="794" grid="1" gridSize="10" guides="1" tooltips="1" connect="1" arrows="1" fold="1" page="1" pageScale="1" pageWidth="1169" pageHeight="827" math="0" shadow="0">
      <root>
        <mxCell id="0" />
        <mxCell id="1" parent="0" />
        
        <!-- Security Data Flow Title -->
        <mxCell id="sec-flow-title" value="Secure Request Processing Flow" style="text;html=1;strokeColor=none;fillColor=none;align=center;verticalAlign=middle;whiteSpace=wrap;rounded=0;fontSize=16;fontStyle=1;" vertex="1" parent="1">
          <mxGeometry x="50" y="20" width="300" height="30" as="geometry" />
        </mxCell>
        
        <!-- Components -->
        <mxCell id="client" value="Client" style="shape=umlActor;verticalLabelPosition=bottom;verticalAlign=top;html=1;outlineConnect=0;fillColor=#e1f5fe;" vertex="1" parent="1">
          <mxGeometry x="50" y="100" width="30" height="60" as="geometry" />
        </mxCell>
        
        <mxCell id="nginx-ssl" value="Nginx (SSL)" style="rounded=1;whiteSpace=wrap;html=1;fillColor=#f3e5f5;strokeColor=#7b1fa2;" vertex="1" parent="1">
          <mxGeometry x="150" y="110" width="100" height="40" as="geometry" />
        </mxCell>
        
        <mxCell id="django-sec" value="Django" style="rounded=1;whiteSpace=wrap;html=1;fillColor=#e8f5e8;strokeColor=#2e7d32;" vertex="1" parent="1">
          <mxGeometry x="300" y="110" width="100" height="40" as="geometry" />
        </mxCell>
        
        <mxCell id="sanitizer" value="Sanitizer" style="rounded=1;whiteSpace=wrap;html=1;fillColor=#fff3e0;strokeColor=#e65100;" vertex="1" parent="1">
          <mxGeometry x="450" y="110" width="100" height="40" as="geometry" />
        </mxCell>
        
        <mxCell id="db-sec" value="Database" style="shape=cylinder3;whiteSpace=wrap;html=1;boundedLbl=1;backgroundOutline=1;size=15;fillColor=#ffebee;strokeColor=#c62828;" vertex="1" parent="1">
          <mxGeometry x="600" y="90" width="80" height="80" as="geometry" />
        </mxCell>
        
        <!-- Security Steps -->
        <mxCell id="sec-step1" value="1. HTTPS Request" style="edgeStyle=orthogonalEdgeStyle;rounded=0;orthogonalLoop=1;jettySize=auto;html=1;labelPosition=center;verticalLabelPosition=top;align=center;verticalAlign=bottom;" edge="1" parent="1" source="client" target="nginx-ssl">
          <mxGeometry relative="1" as="geometry" />
        </mxCell>
        
        <mxCell id="sec-step2" value="2. SSL Termination" style="rounded=1;whiteSpace=wrap;html=1;fillColor=#e3f2fd;" vertex="1" parent="1">
          <mxGeometry x="150" y="200" width="100" height="30" as="geometry" />
        </mxCell>
        
        <mxCell id="sec-step3" value="3. HTTP to Django" style="edgeStyle=orthogonalEdgeStyle;rounded=0;orthogonalLoop=1;jettySize=auto;html=1;labelPosition=center;verticalLabelPosition=top;align=center;verticalAlign=bottom;" edge="1" parent="1" source="nginx-ssl" target="django-sec">
          <mxGeometry relative="1" as="geometry" />
        </mxCell>
        
        <mxCell id="sec-step4" value="4. CSRF Validation" style="rounded=1;whiteSpace=wrap;html=1;fillColor=#f1f8e9;" vertex="1" parent="1">
          <mxGeometry x="300" y="200" width="100" height="30" as="geometry" />
        </mxCell>
        
        <mxCell id="sec-step5" value="5. Authentication Check" style="rounded=1;whiteSpace=wrap;html=1;fillColor=#f1f8e9;" vertex="1" parent="1">
          <mxGeometry x="300" y="240" width="100" height="30" as="geometry" />
        </mxCell>
        
        <mxCell id="sec-step6" value="6. Sanitize Input" style="edgeStyle=orthogonalEdgeStyle;rounded=0;orthogonalLoop=1;jettySize=auto;html=1;labelPosition=center;verticalLabelPosition=top;align=center;verticalAlign=bottom;" edge="1" parent="1" source="django-sec" target="sanitizer">
          <mxGeometry relative="1" as="geometry" />
        </mxCell>
        
        <mxCell id="sec-step7" value="7. Clean Data" style="rounded=1;whiteSpace=wrap;html=1;fillColor=#fff8e1;" vertex="1" parent="1">
          <mxGeometry x="450" y="200" width="100" height="30" as="geometry" />
        </mxCell>
        
        <mxCell id="sec-step8" value="8. Encrypted Query" style="edgeStyle=orthogonalEdgeStyle;rounded=0;orthogonalLoop=1;jettySize=auto;html=1;labelPosition=center;verticalLabelPosition=top;align=center;verticalAlign=bottom;" edge="1" parent="1" source="sanitizer" target="db-sec">
          <mxGeometry relative="1" as="geometry" />
        </mxCell>
        
        <!-- Response Flow -->
        <mxCell id="sec-resp1" value="Encrypted Response" style="edgeStyle=orthogonalEdgeStyle;rounded=0;orthogonalLoop=1;jettySize=auto;html=1;labelPosition=center;verticalLabelPosition=bottom;align=center;verticalAlign=top;dashed=1;dashPattern=5 5;" edge="1" parent="1" source="db-sec" target="sanitizer">
          <mxGeometry relative="1" as="geometry" />
        </mxCell>
        
        <mxCell id="sec-resp2" value="Sanitize Output" style="edgeStyle=orthogonalEdgeStyle;rounded=0;orthogonalLoop=1;jettySize=auto;html=1;labelPosition=center;verticalLabelPosition=bottom;align=center;verticalAlign=top;dashed=1;dashPattern=5 5;" edge="1" parent="1" source="sanitizer" target="django-sec">
          <mxGeometry relative="1" as="geometry" />
        </mxCell>
        
        <mxCell id="sec-resp3" value="Safe Response" style="rounded=1;whiteSpace=wrap;html=1;fillColor=#f1f8e9;" vertex="1" parent="1">
          <mxGeometry x="300" y="280" width="100" height="30" as="geometry" />
        </mxCell>
        
        <mxCell id="sec-resp4" value="JSON Response" style="edgeStyle=orthogonalEdgeStyle;rounded=0;orthogonalLoop=1;jettySize=auto;html=1;labelPosition=center;verticalLabelPosition=bottom;align=center;verticalAlign=top;dashed=1;dashPattern=5 5;" edge="1" parent="1" source="django-sec" target="nginx-ssl">
          <mxGeometry relative="1" as="geometry" />
        </mxCell>
        
        <mxCell id="sec-resp5" value="HTTPS Response" style="edgeStyle=orthogonalEdgeStyle;rounded=0;orthogonalLoop=1;jettySize=auto;html=1;labelPosition=center;verticalLabelPosition=bottom;align=center;verticalAlign=top;dashed=1;dashPattern=5 5;" edge="1" parent="1" source="nginx-ssl" target="client">
          <mxGeometry relative="1" as="geometry" />
        </mxCell>
        
        <!-- Security Features -->
        <mxCell id="security-features" value="Security Features Implemented" style="swimlane;whiteSpace=wrap;html=1;fillColor=#fce4ec;strokeColor=#880e4f;" vertex="1" parent="1">
          <mxGeometry x="50" y="350" width="630" height="120" as="geometry" />
        </mxCell>
        
        <mxCell id="xss-fixed" value="✅ XSS Vulnerabilities Fixed" style="rounded=1;whiteSpace=wrap;html=1;fillColor=#c8e6c9;" vertex="1" parent="security-features">
          <mxGeometry x="20" y="30" width="120" height="30" as="geometry" />
        </mxCell>
        
        <mxCell id="log-injection-fixed" value="✅ Log Injection Fixed" style="rounded=1;whiteSpace=wrap;html=1;fillColor=#c8e6c9;" vertex="1" parent="security-features">
          <mxGeometry x="150" y="30" width="120" height="30" as="geometry" />
        </mxCell>
        
        <mxCell id="input-sanitization" value="✅ Input Sanitization" style="rounded=1;whiteSpace=wrap;html=1;fillColor=#c8e6c9;" vertex="1" parent="security-features">
          <mxGeometry x="280" y="30" width="120" height="30" as="geometry" />
        </mxCell>
        
        <mxCell id="secure-logging" value="✅ Secure Logging" style="rounded=1;whiteSpace=wrap;html=1;fillColor=#c8e6c9;" vertex="1" parent="security-features">
          <mxGeometry x="410" y="30" width="120" height="30" as="geometry" />
        </mxCell>
        
        <mxCell id="network-isolation" value="✅ Network Isolation" style="rounded=1;whiteSpace=wrap;html=1;fillColor=#c8e6c9;" vertex="1" parent="security-features">
          <mxGeometry x="20" y="70" width="120" height="30" as="geometry" />
        </mxCell>
        
        <mxCell id="https-only" value="✅ HTTPS Only" style="rounded=1;whiteSpace=wrap;html=1;fillColor=#c8e6c9;" vertex="1" parent="security-features">
          <mxGeometry x="150" y="70" width="120" height="30" as="geometry" />
        </mxCell>
        
        <mxCell id="csrf-protection" value="✅ CSRF Protection" style="rounded=1;whiteSpace=wrap;html=1;fillColor=#c8e6c9;" vertex="1" parent="security-features">
          <mxGeometry x="280" y="70" width="120" height="30" as="geometry" />
        </mxCell>
        
        <mxCell id="zero-vulnerabilities" value="✅ Zero Critical Vulnerabilities" style="rounded=1;whiteSpace=wrap;html=1;fillColor=#4caf50;fontStyle=1;fontColor=#ffffff;" vertex="1" parent="security-features">
          <mxGeometry x="410" y="70" width="180" height="30" as="geometry" />
        </mxCell>
        
      </root>
    </mxGraphModel>
  </diagram>
</mxfile>